<svg xmlns="http://www.w3.org/2000/svg" width="1311" height="402" viewBox="0 0 1311 402">
    <g fill="none" fill-rule="evenodd">
        <path fill="#0C1230" d="M1052 243h54v-27h-54z"/>
        <path fill="#F78B4D" d="M214 243h54v-27h-54z"/>
        <path fill="#6D7183" d="M1307 229.5l-22.5 22.5-22.5-22.5 22.5-22.5z"/>
        <path fill="#F77531" d="M54 229.5c0 12.426-10.074 22.5-22.5 22.5C19.073 252 9 241.926 9 229.5S19.073 207 31.5 207c12.426 0 22.5 10.074 22.5 22.5"/>
        <path fill="#F78B4D" d="M1153 177h54v-27h-54z"/>
        <path fill="#0C1230" d="M115 177h54v-27h-54z"/>
        <g>
            <path fill="#F78B4D" d="M0 393h54v-27H0z"/>
            <path fill="#0D2743" d="M1257 393h54v-27h-54z"/>
            <path fill="#0C1230" d="M214 393h54v-27h-54z"/>
            <path fill="#F77531" d="M838 393h54v-27h-54z"/>
            <path fill="#6D7183" d="M473 379.5L450.5 402 428 379.5l22.5-22.5z"/>
            <path fill="#0C1230" d="M1102 379.5c0 12.426-10.074 22.5-22.5 22.5-12.427 0-22.5-10.074-22.5-22.5s10.073-22.5 22.5-22.5c12.426 0 22.5 10.074 22.5 22.5M678 379.5c0 12.426-10.074 22.5-22.5 22.5-12.427 0-22.5-10.074-22.5-22.5s10.073-22.5 22.5-22.5c12.426 0 22.5 10.074 22.5 22.5"/>
        </g>
        <g>
            <path fill="#6D7183" d="M0 111h54V84H0z"/>
            <path fill="#0C1230" d="M1257 111h54V84h-54z"/>
            <path fill="#F77531" d="M214 111h54V84h-54z"/>
            <path fill="#F58B54" d="M1102 97.5c0 12.426-10.074 22.5-22.5 22.5-12.427 0-22.5-10.074-22.5-22.5s10.073-22.5 22.5-22.5c12.426 0 22.5 10.074 22.5 22.5"/>
        </g>
        <g>
            <path fill="#0D2743" d="M1153 27h54V0h-54z"/>
            <path fill="#0C1230" d="M165 22.5L142.5 45 120 22.5 142.5 0z"/>
        </g>
        <g>
            <path fill="#F77531" d="M1153 318h54v-27h-54z"/>
            <path fill="#6D7183" d="M165 304.5L142.5 327 120 304.5l22.5-22.5zM991 304.5L968.5 327 946 304.5l22.5-22.5z"/>
            <path fill="#F77531" d="M375 304.5c0 12.426-10.074 22.5-22.5 22.5-12.427 0-22.5-10.074-22.5-22.5s10.073-22.5 22.5-22.5c12.426 0 22.5 10.074 22.5 22.5"/>
        </g>
    </g>
</svg>